<?xml version="1.0" encoding="UTF-8"?>
<svg width="72px" height="73px" viewBox="0 0 72 73" version="1.1" xmlns="http://www.w3.org/2000/svg" xmlns:xlink="http://www.w3.org/1999/xlink">
    <!-- Generator: Sketch 42 (36781) - http://www.bohemiancoding.com/sketch -->
    <title>theicons.co/svg/city-03</title>
    <desc>Created with Sketch.</desc>
    <defs>
        <rect x="0" y="0" width="287" height="300"></rect>
        <mask maskContentUnits="userSpaceOnUse" maskUnits="objectBoundingBox" x="0" y="0" width="287" height="300" fill="white">
            <use xlink:href="#path-1"></use>
        </mask>
    </defs>
    <g stroke="none" stroke-width="1" fill="none" fill-rule="evenodd">
        <g transform="translate(-772.000000, -450.000000)">
            <g transform="translate(664.000000, 389.000000)">
                <use stroke="#D4D8DF" mask="url(#mask-2)" stroke-width="2" fill="#FFFFFF" xlink:href="#path-1"></use>
                <g transform="translate(108.000000, 61.000000)" fill="#00C5A3">
                    <path d="M27,34.5005775 C27,36.1571128 25.6534829,37.5 24,37.5 C22.3431458,37.5 21,36.1556493 21,34.5005775 L18,34.5 L18,58.5 L30,58.5 L30,42.4945615 C30,41.3929956 30.9019504,40.5 32.0085302,40.5 L39.9914698,40.5 C41.1007504,40.5 42,41.4023438 42,42.4945615 L42,58.5 L54,58.5 L54,34.5 L51,34.5 C51,36.1571128 49.6534829,37.5 48,37.5 C46.3431458,37.5 45,36.1556493 45,34.5005775 L39,34.5 C39,36.1571128 37.6534829,37.5 36,37.5 C34.3431458,37.5 33,36.1556493 33,34.5005775 L27,34.5 Z M27,28.5 L33,28.5 L33,25.4994225 C33,23.8428872 34.3465171,22.5 36,22.5 C37.6568542,22.5 39,23.8443507 39,25.4994225 L39,28.5 L45,28.5 L45,25.4994225 C45,23.8428872 46.3465171,22.5 48,22.5 C49.6568542,22.5 51,23.8443507 51,25.4994225 L51,28.5 L54.82767,28.5 C57.3864116,28.5 58.2249438,27.3469585 57.4381796,24.8965181 L54.7402954,16.5 L17.1732848,16.5 L14.5627753,24.8965181 C13.7768367,27.344387 14.6179053,28.5 17.1732848,28.5 L21,28.5 L21,25.4994225 C21,23.8428872 22.3465171,22.5 24,22.5 C25.6568542,22.5 27,23.8443507 27,25.4994225 L27,28.5 Z M60,33.1840841 L60,61.4925801 C60,63.1535323 58.6661074,64.5 56.997385,64.5 L15.002615,64.5 C13.3443165,64.5 12,63.1544607 12,61.4925801 L12,33.1818229 C8.80990406,31.2647301 7.44025537,27.4531057 8.85000833,23.0623169 L11.9691943,13.3473616 C12.4740952,11.7748072 14.2172353,10.5 15.8813267,10.5 L56.1196281,10.5 C57.7753383,10.5 59.5318481,11.7903442 60.0317605,13.3473616 L63.1509465,23.0623169 C64.5609622,27.4539241 63.1933662,31.2674514 60,33.1840841 Z" id="Combined-Shape"></path>
                </g>
            </g>
        </g>
    </g>
</svg>