<?xml version="1.0" encoding="UTF-8"?>
<svg width="72px" height="73px" viewBox="0 0 72 73" version="1.1" xmlns="http://www.w3.org/2000/svg" xmlns:xlink="http://www.w3.org/1999/xlink">
    <!-- Generator: Sketch 42 (36781) - http://www.bohemiancoding.com/sketch -->
    <title>theicons.co/svg/finance-34</title>
    <desc>Created with Sketch.</desc>
    <defs>
        <rect x="0" y="0" width="287" height="300"></rect>
        <mask maskContentUnits="userSpaceOnUse" maskUnits="objectBoundingBox" x="0" y="0" width="287" height="300" fill="white">
            <use xlink:href="#path-1"></use>
        </mask>
    </defs>
    <g stroke="none" stroke-width="1" fill="none" fill-rule="evenodd">
        <g transform="translate(-468.000000, -450.000000)">
            <g transform="translate(360.000000, 389.000000)">
                <use stroke="#D4D8DF" mask="url(#mask-2)" stroke-width="2" fill="#FFFFFF" xlink:href="#path-1"></use>
                <g transform="translate(108.000000, 61.000000)" fill="#00C5A3">
                    <path d="M9,63 L9,11.9995609 C9,8.68341803 11.6797088,6 15.002615,6 L56.997385,6 C60.3134111,6 63,8.67884373 63,11.9995609 L63,63 C63,65.2301461 60.6530625,66.6806332 58.6583592,65.6832816 L54.033994,63.371099 L49.3416408,65.6832816 C48.4970583,66.1055728 47.5029417,66.1055728 46.6583592,65.6832816 L42.0079198,63.3580618 L37.3416408,65.6832816 C36.4970583,66.1055728 35.5029417,66.1055728 34.6583592,65.6832816 L30.0093114,63.3587576 L25.3459583,65.6829538 C24.5014788,66.1054514 23.5073619,66.1056941 22.6626761,65.6836089 L18.0085267,63.3579536 L13.3416408,65.6832816 C11.3469375,66.6806332 9,65.2301461 9,63 Z M56.997385,12 C56.997385,12 15,11.9952701 15,11.9995609 L15,58.1416626 L16.6583592,57.3167184 C17.5027113,56.8945424 18.4965309,56.8944211 19.340986,57.3163911 L24.0300293,59.6565088 L28.6577038,57.3170462 C29.5024138,56.8944333 30.4968277,56.8943119 31.3416408,57.3167184 L36,59.6517892 L40.6583592,57.3167184 C41.5029417,56.8944272 42.4970583,56.8944272 43.3416408,57.3167184 L48.0450439,59.6658151 L52.6583592,57.3167184 C53.5029417,56.8944272 54.4970583,56.8944272 55.3416408,57.3167184 L57.0150146,58.153547 C57.0150146,58.153547 57.0035742,12 56.997385,12 Z M36,43.9979131 C36,42.8944962 36.8933973,42 37.9918842,42 L49.0081158,42 C50.1082031,42 51,42.8982606 51,43.9979131 L51,46.0020869 C51,47.1055038 50.1066027,48 49.0081158,48 L37.9918842,48 C36.8917969,48 36,47.1017394 36,46.0020869 L36,43.9979131 Z M21,31.9979131 C21,30.8944962 21.8978404,30 22.991617,30 L49.008383,30 C50.1083227,30 51,30.8982606 51,31.9979131 L51,34.0020869 C51,35.1055038 50.1021596,36 49.008383,36 L22.991617,36 C21.8916773,36 21,35.1017394 21,34.0020869 L21,31.9979131 Z M21,19.9979131 C21,18.8944962 21.8978404,18 22.991617,18 L49.008383,18 C50.1083227,18 51,18.8982606 51,19.9979131 L51,22.0020869 C51,23.1055038 50.1021596,24 49.008383,24 L22.991617,24 C21.8916773,24 21,23.1017394 21,22.0020869 L21,19.9979131 Z" id="Combined-Shape"></path>
                </g>
            </g>
        </g>
    </g>
</svg>