<?xml version="1.0" encoding="UTF-8"?>
<svg width="72px" height="72px" viewBox="0 0 72 72" version="1.1" xmlns="http://www.w3.org/2000/svg" xmlns:xlink="http://www.w3.org/1999/xlink">
    <!-- Generator: Sketch 42 (36781) - http://www.bohemiancoding.com/sketch -->
    <title>theicons.co/svg/others-18</title>
    <desc>Created with Sketch.</desc>
    <defs>
        <rect x="0" y="0" width="287" height="300"></rect>
        <mask maskContentUnits="userSpaceOnUse" maskUnits="objectBoundingBox" x="0" y="0" width="287" height="300" fill="white">
            <use xlink:href="#path-1"></use>
        </mask>
    </defs>
    <g stroke="none" stroke-width="1" fill="none" fill-rule="evenodd">
        <g transform="translate(-1381.000000, -450.000000)">
            <g transform="translate(1273.000000, 389.000000)">
                <use stroke="#D4D8DF" mask="url(#mask-2)" stroke-width="2" fill="#FFFFFF" xlink:href="#path-1"></use>
                <g transform="translate(108.000000, 61.000000)" fill="#00C5A3">
                    <path d="M36.0195935,33 L22.9945615,33 C21.8929956,33 21,32.1017394 21,31.0020869 L21,28.5 L21,18 L11.9943041,18 C11.9951773,18 12,60.0147321 12,60.0147321 C12,60.007551 36.0149205,60 36.0149205,60 C36.0085014,60 36.0152661,42.7387401 36.0195935,33 Z M36.0223769,26.9999959 C36.0225325,26.6801682 36.0226181,26.5078995 36.0226181,26.5078995 L27.4881592,18 L27,18 L27,27 L36.0223769,27 Z M54.0022851,49.5 C54.002157,51.2592273 54.0020314,52.3393695 54.0020314,52.3393695 L57,57.3285564 L60,52.3761292 L60,49.5 L54.0022851,49.5 Z M54.0025463,43.5 L60,43.5 L60,21.0063866 C60,20.9972244 53.9937394,21 53.9937394,21 C54.0014946,21 54.0026725,34.2318368 54.0025463,43.5 Z M53.9937394,6 L60.0062606,6 C63.3165115,6 66,8.68354127 66,12.0063866 L66,54 L60.0846979,63.8783331 C58.3810663,66.7233341 55.6134738,66.7142162 53.9153021,63.8783331 L48,54 L48,12.0063866 C48,8.68915086 50.6947819,6 53.9937394,6 Z M6,17.9852679 C6,14.6796957 8.68324555,12 11.9943041,12 L28.4986925,12 C29.3278417,12 30.4852767,12.4852767 31.0649199,13.0649199 L40.9350801,22.9350801 C41.5232191,23.5232191 42,24.6597197 42,25.4948022 L42,60.0047417 C42,63.3158314 39.3235601,66 36.0149205,66 L11.9850795,66 C8.67961137,66 6,63.3221316 6,60.0147321 L6,17.9852679 Z" id="Combined-Shape"></path>
                </g>
            </g>
        </g>
    </g>
</svg>