<?xml version="1.0" encoding="UTF-8"?>
<svg width="72px" height="72px" viewBox="0 0 72 72" version="1.1" xmlns="http://www.w3.org/2000/svg" xmlns:xlink="http://www.w3.org/1999/xlink">
    <!-- Generator: Sketch 42 (36781) - http://www.bohemiancoding.com/sketch -->
    <title>theicons.co/svg/text-07</title>
    <desc>Created with Sketch.</desc>
    <defs>
        <rect x="0" y="0" width="287" height="300"></rect>
        <mask maskContentUnits="userSpaceOnUse" maskUnits="objectBoundingBox" x="0" y="0" width="287" height="300" fill="white">
            <use xlink:href="#path-1"></use>
        </mask>
    </defs>
    <g stroke="none" stroke-width="1" fill="none" fill-rule="evenodd">
        <g transform="translate(-1077.000000, -450.000000)">
            <g transform="translate(969.000000, 389.000000)">
                <use stroke="#D4D8DF" mask="url(#mask-2)" stroke-width="2" fill="#FFFFFF" xlink:href="#path-1"></use>
                <g transform="translate(108.000000, 61.000000)" fill-rule="nonzero" fill="#00C5A3">
                    <path d="M3.88211908,33.8364274 L15.8821191,21.8752458 C17.0555884,20.7055725 18.9550809,20.7086497 20.1247542,21.8821191 C21.2944275,23.0555884 21.2913503,24.9550809 20.1178809,26.1247542 L10.2378435,36 L20.1247431,45.882108 C21.2944226,47.0555712 21.2913553,48.9550637 20.117892,50.1247431 C18.9444288,51.2944226 17.0449363,51.2913553 15.8752569,50.117892 L3.87525688,38.0790737 C2.70557308,36.9056061 2.7086454,35.0061051 3.88211908,33.8364274 Z M68.1178809,33.8364274 C69.2913546,35.0061051 69.2944269,36.9056061 68.1247431,38.0790737 L56.1247431,50.117892 C54.9550637,51.2913553 53.0555712,51.2944226 51.882108,50.1247431 C50.7086447,48.9550637 50.7055774,47.0555712 51.8752569,45.882108 L61.7621565,36 L51.8821191,26.1247542 C50.7086497,24.9550809 50.7055725,23.0555884 51.8752458,21.8821191 C53.0449191,20.7086497 54.9444116,20.7055725 56.1178809,21.8752458 L68.1178809,33.8364274 Z M32.9285612,63.6507914 C32.569139,65.2681911 30.9666083,66.2879833 29.3492086,65.9285612 C27.7318089,65.569139 26.7120167,63.9666083 27.0714388,62.3492086 L39.0714388,8.34920863 C39.430861,6.73180895 41.0333917,5.71201667 42.6507914,6.07143882 C44.2681911,6.43086097 45.2879833,8.03339169 44.9285612,9.65079137 L32.9285612,63.6507914 Z" id="Combined-Shape"></path>
                </g>
            </g>
        </g>
    </g>
</svg>