<?xml version="1.0" encoding="UTF-8"?>
<svg width="137px" height="62px" viewBox="0 0 137 62" version="1.1" xmlns="http://www.w3.org/2000/svg" xmlns:xlink="http://www.w3.org/1999/xlink">
    <!-- Generator: Sketch 42 (36781) - http://www.bohemiancoding.com/sketch -->
    <title>Fill 1</title>
    <desc>Created with Sketch.</desc>
    <defs></defs>
    <g stroke="none" stroke-width="1">
        <path d="M12.086,21.2294959 C7.905,15.8424959 4.044,10.8684959 0,5.65649589 C1.733,4.55049589 2.948,3.71749589 4.216,2.97649589 C12.055,-1.60450411 15.493,-1.05350411 21.544,5.71649589 C43.346,30.1114959 79.647,33.8794959 105.628,14.3474959 C108.673,12.0574959 111.494,9.39949589 114.108,6.61949589 C121.834,-1.59550411 126.434,-1.85750411 135.694,6.18849589 C132.023,10.9824959 128.322,15.8154959 124.476,20.8374959 C128.2,25.3314959 132.008,29.9274959 136.087,34.8514959 C132.963,37.5514959 129.976,40.1334959 126.652,43.0064959 C122.732,38.2164959 118.981,33.6334959 115.12,28.9164959 C110.653,31.5414959 106.411,34.0334959 101.992,36.6294959 C104.044,42.1644959 106.056,47.5894959 108.217,53.4154959 C104.299,54.8744959 100.635,56.2394959 96.678,57.7134959 C94.388,51.9324959 92.257,46.5484959 89.992,40.8294959 C85.023,41.6324959 80.171,42.4174959 74.915,43.2674959 L74.915,61.1844959 L62.303,61.1844959 L62.303,43.3284959 C57.084,42.4464959 52.384,41.6524959 47.272,40.7884959 C45.108,46.2404959 42.986,51.5884959 40.712,57.3174959 C36.879,55.8924959 33.347,54.5804959 29.217,53.0444959 C31.218,47.6244959 33.139,42.4184959 35.19,36.8644959 C30.858,34.3994959 26.606,31.9784959 21.93,29.3174959 C18.242,33.6204959 14.599,37.8714959 10.78,42.3264959 C7.586,39.6334959 4.68,37.1844959 1.32,34.3514959 C4.956,29.9194959 8.492,25.6104959 12.086,21.2294959" ></path>
    </g>
</svg>
