<?xml version="1.0" encoding="UTF-8"?>
<svg width="20px" height="12px" viewBox="0 0 20 12" version="1.1" xmlns="http://www.w3.org/2000/svg" xmlns:xlink="http://www.w3.org/1999/xlink">
    <!-- Generator: Sketch 41.2 (35397) - http://www.bohemiancoding.com/sketch -->
    <title>meter</title>
    <desc>Created with Sketch.</desc>
    <defs></defs>
    <g id="Page-1" stroke="none" stroke-width="1" fill="none" fill-rule="evenodd">
        <g id="邮箱管理-copy" transform="translate(-1231.000000, -532.000000)" fill="#00C5A3">
            <g id="Group-5-Copy-7" transform="translate(65.000000, 519.000000)">
                <g id="Group-10" transform="translate(1160.000000, 4.000000)">
                    <path d="M16.7004348,11.5768182 C17.1817391,11.6205139 17.6002174,11.2631226 17.641087,10.7846443 C17.6819565,10.3061661 17.3271739,9.8850791 16.848913,9.84399215 C16.5682609,9.8200791 16.2828261,9.80790519 16,9.80790519 C10.486087,9.80790519 6,14.3702965 6,19.97834 C6,20.4585574 6.38934783,20.8479052 6.86956522,20.8479052 C7.34978261,20.8479052 7.73913043,20.4585574 7.73913043,19.97834 C7.73913043,15.3292095 11.445,11.5470356 16,11.5470356 C16.2334783,11.5470356 16.4691304,11.5570356 16.7004348,11.5768182 M23.3045652,13.0320356 C22.9795652,12.6785574 22.4295652,12.6555139 22.0758696,12.9805139 C21.7223913,13.3057313 21.6993478,13.8557313 22.0243478,14.2092095 C23.4667391,15.7776878 24.2608696,17.8263835 24.2608696,19.97834 C24.2608696,20.4585574 24.6502174,20.8479052 25.1304348,20.8479052 C25.6106522,20.8479052 26,20.4585574 26,19.97834 C26,17.3892095 25.0428261,14.9224704 23.3045652,13.0320356 M21.8295652,10.3900791 L17.6176087,19.4696443 C17.246087,20.4013835 16.5991304,20.9566008 15.8817391,20.9566008 C15.3,20.9566008 14.7882609,20.6605139 14.5128261,20.1646443 C14.203913,19.6085574 14.2369565,18.9018182 14.5991304,18.3196443 L14.5991304,18.3196443 L20.1115217,9.46160084 C20.385,9.02247041 20.9526087,8.87203562 21.4073913,9.1176878 C21.8621739,9.36355736 22.0471739,9.92094867 21.8295652,10.3900791" id="meter"></path>
                </g>
            </g>
        </g>
    </g>
</svg>