<?xml version="1.0" encoding="UTF-8"?>
<svg width="132px" height="77px" viewBox="0 0 132 77" version="1.1" xmlns="http://www.w3.org/2000/svg" xmlns:xlink="http://www.w3.org/1999/xlink">
    <!-- Generator: Sketch 42 (36781) - http://www.bohemiancoding.com/sketch -->
    <title>Page 1</title>
    <desc>Created with Sketch.</desc>
    <defs></defs>
    <g stroke="none" stroke-width="1" >
        <g>
            <path d="M65.3079,61.8924 C78.3319,61.7494 89.1569,50.6894 88.9119,37.7734 C88.6669,24.8824 77.9949,14.3324 65.1649,14.2974 C52.1579,14.2624 41.2699,25.1594 41.3169,38.1654 C41.3639,51.1894 52.3289,62.0344 65.3079,61.8924 M131.9579,38.1924 C113.7269,54.1814 96.2019,69.8684 72.3319,75.3154 C61.1579,77.8664 50.4579,75.1644 40.2219,70.7764 C24.6159,64.0844 11.8509,53.4934 0.8319,40.7524 C-0.0531,39.7294 -0.3171,36.7854 0.4579,35.9124 C15.7869,18.6484 33.2769,4.7194 56.8819,0.6554 C65.4829,-0.8266 73.8159,0.2404 81.8589,3.4944 C100.8689,11.1854 116.4559,23.8134 131.9579,38.1924 Z M78.052,37.9754 C77.974,30.9424 71.888,25.0344 64.869,25.1794 C58.013,25.3224 52.268,31.1234 52.198,37.9774 C52.128,45.0114 58.087,51.0334 65.12,51.0334 C72.138,51.0324 78.129,44.9834 78.052,37.9754 Z"></path>
        </g>
    </g>
</svg>
