<?xml version="1.0" encoding="UTF-8"?>
<svg width="19px" height="24px" viewBox="0 0 19 24" version="1.1" xmlns="http://www.w3.org/2000/svg" xmlns:xlink="http://www.w3.org/1999/xlink">
    <!-- Generator: Sketch 43.1 (39012) - http://www.bohemiancoding.com/sketch -->
    <title>document</title>
    <desc>Created with Sketch.</desc>
    <defs></defs>
    <g id="Page-1" stroke="none" stroke-width="1" fill="none" fill-rule="evenodd">
        <g id="选择应用设置" transform="translate(-134.000000, -449.000000)" fill="#D4D8DF">
            <g id="Group-12-Copy-2" transform="translate(65.000000, 441.000000)">
                <g id="Group-11">
                    <g id="Group-7">
                        <path d="M82.0009091,21.9881818 C82.1781818,22.1654545 82.2790909,22.4109091 82.2790909,22.6645455 C82.2790909,22.9154545 82.1781818,23.1609091 82.0009091,23.3381818 C81.8236364,23.5154545 81.5754545,23.6163636 81.3245455,23.6163636 C81.0736364,23.6163636 80.8281818,23.5154545 80.6509091,23.3381818 C80.4709091,23.1609091 80.37,22.9154545 80.37,22.6645455 C80.37,22.4109091 80.4709091,22.1654545 80.6509091,21.9881818 C81.0054545,21.6336364 81.6463636,21.6336364 82.0009091,21.9881818 L82.0009091,21.9881818 Z M73.9156364,14.1363636 C73.9156364,13.6091818 74.3427273,13.1818182 74.8701818,13.1818182 L81.3619091,13.1818182 C81.8890909,13.1818182 82.3164545,13.6091818 82.3164545,14.1363636 C82.3164545,14.6635455 81.8890909,15.0909091 81.3619091,15.0909091 L74.8701818,15.0909091 C74.3427273,15.0909091 73.9156364,14.6635455 73.9156364,14.1363636 L73.9156364,14.1363636 Z M73.9156364,18.2272727 C73.9156364,17.7000909 74.3427273,17.2727273 74.8701818,17.2727273 L81.3619091,17.2727273 C81.8890909,17.2727273 82.3164545,17.7000909 82.3164545,18.2272727 C82.3164545,18.7544545 81.8890909,19.1818182 81.3619091,19.1818182 L74.8701818,19.1818182 C74.3427273,19.1818182 73.9156364,18.7544545 73.9156364,18.2272727 L73.9156364,18.2272727 Z M73.764,22.5909091 C73.764,22.0637273 74.1913636,21.6363636 74.7185455,21.6363636 L77.9424545,21.6363636 C78.4696364,21.6363636 78.897,22.0637273 78.897,22.5909091 C78.897,23.1180909 78.4696364,23.5454545 77.9424545,23.5454545 L74.7185455,23.5454545 C74.1913636,23.5454545 73.764,23.1180909 73.764,22.5909091 L73.764,22.5909091 Z M71.1818182,29.8181818 L85.3636364,29.8181818 L85.3636364,10.1818182 L71.1818182,10.1818182 L71.1818182,29.8181818 Z M86.4545455,8 L70.0909091,8 C69.4884545,8 69,8.48845455 69,9.09090909 L69,30.9090909 C69,31.5115455 69.4884545,32 70.0909091,32 L86.4545455,32 C87.057,32 87.5454545,31.5115455 87.5454545,30.9090909 L87.5454545,9.09090909 C87.5454545,8.48845455 87.057,8 86.4545455,8 L86.4545455,8 Z" id="document"></path>
                    </g>
                </g>
            </g>
        </g>
    </g>
</svg>