<?xml version="1.0" encoding="UTF-8"?>
<svg width="20px" height="18px" viewBox="0 0 20 18" version="1.1" xmlns="http://www.w3.org/2000/svg" xmlns:xlink="http://www.w3.org/1999/xlink">
    <!-- Generator: Sketch 41.2 (35397) - http://www.bohemiancoding.com/sketch -->
    <title>pulse</title>
    <desc>Created with Sketch.</desc>
    <defs></defs>
    <g stroke="none" stroke-width="1" fill="none" fill-rule="evenodd">
        <g transform="translate(-1191.000000, -412.000000)" fill="#FFFFFF">
            <g transform="translate(65.000000, 402.000000)">
                <g transform="translate(1120.000000, 4.000000)">
                    <path d="M26,17.0883122 C26,17.5685295 25.6106522,17.9578774 25.1304348,17.9578774 L21.0452174,17.9578774 C20.676087,17.9578774 20.3469565,17.751573 20.2247826,17.4030948 L19.5730435,15.571573 L17.4502174,22.7685295 C17.3408696,23.1391817 17.0008696,23.3913556 16.6163043,23.3913556 C16.6076087,23.3913556 16.5991304,23.3896165 16.5902174,23.3891817 C16.1954348,23.3774426 15.8580435,23.09766 15.768913,22.71266 L12.961087,10.566573 L11.261087,17.3272252 C11.163913,17.7139643 10.8163043,17.9578774 10.4176087,17.9578774 L6.86956522,17.9578774 C6.38934783,17.9578774 6,17.5685295 6,17.0883122 C6,16.6080948 6.38934783,16.2187469 6.86956522,16.2187469 L9.73934783,16.2187469 L12.1521739,6.63135563 C12.25,6.24157303 12.6067391,5.99592085 13.0036957,6.00005129 C13.4054348,6.00396433 13.7521739,6.28157303 13.8428261,6.67287737 L16.7178261,19.1011382 L18.6676087,12.48766 C18.7741304,12.1254861 19.1023913,11.8670078 19.4795652,11.8574426 C19.8545652,11.846573 20.1971739,12.0691817 20.3219565,12.4254861 L21.6617391,16.2187469 L25.1304348,16.2187469 C25.6106522,16.2187469 26,16.6080948 26,17.0883122"></path>
                </g>
            </g>
        </g>
    </g>
</svg>