<?xml version="1.0" encoding="UTF-8"?>
<svg width="16px" height="15px" viewBox="0 0 16 15" version="1.1" xmlns="http://www.w3.org/2000/svg" xmlns:xlink="http://www.w3.org/1999/xlink">
    <!-- Generator: Sketch 43.1 (39012) - http://www.bohemiancoding.com/sketch -->
    <title>wallet</title>
    <desc>Created with Sketch.</desc>
    <defs></defs>
    <g id="Page-1" stroke="none" stroke-width="1" fill="none" fill-rule="evenodd">
        <g id="短信管理-充值管理-" transform="translate(-98.000000, -184.000000)" fill="#FFFFFF">
            <path d="M112.577778,188.918578 C112.577778,188.607644 112.3248,188.266667 112.014044,188.266667 L99.7134222,188.266667 C99.5528889,188.266667 99.4222222,188.485333 99.4222222,188.646044 L99.4222222,190.133867 L99.4222222,196.528356 C99.4222222,196.678044 99.5441778,196.8 99.6940444,196.8 L112.557511,196.8 C112.568711,196.8 112.577778,196.790933 112.577778,196.779911 L112.577778,188.918578 Z M99.3221333,186.133333 C99.3221333,186.526222 99.6405333,186.844444 100.033244,186.844444 L110.266667,186.844444 L110.266667,185.734222 C110.266667,185.561956 110.126933,185.422222 109.954667,185.422222 L100.033244,185.422222 C99.6405333,185.422222 99.3221333,185.740622 99.3221333,186.133333 L99.3221333,186.133333 Z M114,188.918578 L114,196.779911 C114,197.575289 113.352889,198.222222 112.557511,198.222222 L99.6940444,198.222222 C98.7598222,198.222222 98,197.4624 98,196.528356 L98,190.133867 L98,188.646044 L98,186.127111 C98,184.954311 98.9534222,184 100.125333,184 L109.956089,184 C110.934756,184 111.688889,184.7968 111.688889,185.776356 L111.688889,186.844444 L112.014044,186.844444 C113.109156,186.844444 114,187.823467 114,188.918578 L114,188.918578 Z M110.677333,191.697778 C110.910222,191.929067 111.041778,192.248889 111.041778,192.577778 C111.041778,192.904889 110.910222,193.224889 110.677333,193.457778 C110.446222,193.688889 110.126222,193.822222 109.797333,193.822222 C109.470222,193.822222 109.150222,193.688889 108.917333,193.457778 C108.686222,193.224889 108.552889,192.904889 108.552889,192.577778 C108.552889,192.248889 108.686222,191.929067 108.917333,191.697778 C109.150222,191.464889 109.470222,191.333333 109.797333,191.333333 C110.126222,191.333333 110.446222,191.464889 110.677333,191.697778 L110.677333,191.697778 Z" id="wallet"></path>
        </g>
    </g>
</svg>